<svg width="16" height="16" viewBox="0 0 16 16" fill="none" xmlns="http://www.w3.org/2000/svg">
<mask id="path-1-inside-1_646_1777" fill="white">
<path fill-rule="evenodd" clip-rule="evenodd" d="M7.38085 2.23926L2.12317 6.72504C1.87639 6.93559 2.02529 7.33951 2.34968 7.33951H3.06136C3.06027 7.35859 3.05972 7.37782 3.05972 7.39717V12.9359C3.05972 13.4881 3.50744 13.9359 4.05972 13.9359L7.20149 13.9359V11.9372C7.20149 11.4797 7.57237 11.1089 8.02986 11.1089C8.48735 11.1089 8.85822 11.4797 8.85822 11.9372V13.9359L12.0001 13.9359C12.5524 13.9359 13.0001 13.4881 13.0001 12.9359V7.39717C13.0001 7.37782 12.9996 7.35859 12.9985 7.33951H13.7101C14.0345 7.33951 14.1834 6.93559 13.9366 6.72504L8.67896 2.23926C8.30505 1.92025 7.75475 1.92025 7.38085 2.23926Z"/>
</mask>
<path d="M2.12317 6.72504L1.47412 5.9643L1.47412 5.9643L2.12317 6.72504ZM7.38085 2.23926L6.73179 1.47852L6.73179 1.47852L7.38085 2.23926ZM3.06136 7.33951L4.05975 7.39627C4.07536 7.12164 3.97716 6.85271 3.78826 6.65276C3.59935 6.45281 3.33643 6.33951 3.06136 6.33951V7.33951ZM4.05972 13.9359L4.05972 12.9359H4.05972V13.9359ZM7.20149 13.9359L7.20149 14.9359C7.46671 14.9359 7.72106 14.8305 7.9086 14.643C8.09614 14.4554 8.20149 14.2011 8.20149 13.9359H7.20149ZM8.85822 13.9359H7.85822C7.85822 14.2011 7.96358 14.4554 8.15112 14.643C8.33865 14.8305 8.59301 14.9359 8.85823 14.9359L8.85822 13.9359ZM12.0001 13.9359V12.9359V13.9359ZM12.9985 7.33951V6.33951C12.7234 6.33951 12.4605 6.45282 12.2716 6.65277C12.0827 6.85272 11.9845 7.12166 12.0001 7.39629L12.9985 7.33951ZM13.9366 6.72504L14.5857 5.9643V5.9643L13.9366 6.72504ZM8.67896 2.23926L8.0299 3V3L8.67896 2.23926ZM2.77223 7.48579L8.0299 3L6.73179 1.47852L1.47412 5.9643L2.77223 7.48579ZM2.34968 6.33951C2.95483 6.33951 3.23259 7.09301 2.77223 7.48579L1.47412 5.9643C0.520202 6.77817 1.09575 8.33951 2.34968 8.33951V6.33951ZM3.06136 6.33951H2.34968V8.33951H3.06136V6.33951ZM4.05972 7.39717L4.05975 7.39627L2.06297 7.28275C2.06081 7.32072 2.05972 7.35887 2.05972 7.39717H4.05972ZM4.05972 12.9359V7.39717H2.05972V12.9359H4.05972ZM4.05972 12.9359H4.05972H2.05972C2.05972 14.0404 2.95515 14.9359 4.05972 14.9359V12.9359ZM7.20149 12.9359L4.05972 12.9359L4.05972 14.9359L7.20149 14.9359L7.20149 12.9359ZM8.20149 13.9359V11.9372H6.20149V13.9359H8.20149ZM8.20149 11.9372C8.20149 12.032 8.12465 12.1089 8.02986 12.1089V10.1089C7.02008 10.1089 6.20149 10.9274 6.20149 11.9372H8.20149ZM8.02986 12.1089C7.93507 12.1089 7.85822 12.032 7.85822 11.9372H9.85822C9.85822 10.9274 9.03964 10.1089 8.02986 10.1089V12.1089ZM7.85822 11.9372V13.9359H9.85822V11.9372H7.85822ZM12.0001 12.9359L8.85822 12.9359L8.85823 14.9359L12.0001 14.9359V12.9359ZM12.0001 12.9359V14.9359C13.1047 14.9359 14.0001 14.0404 14.0001 12.9359H12.0001ZM12.0001 7.39717V12.9359H14.0001V7.39717H12.0001ZM12.0001 7.39629L12.0001 7.39717H14.0001C14.0001 7.35889 13.999 7.32073 13.9969 7.28273L12.0001 7.39629ZM13.7101 6.33951H12.9985V8.33951H13.7101V6.33951ZM13.2876 7.48579C12.8272 7.09301 13.105 6.33951 13.7101 6.33951V8.33951C14.964 8.33951 15.5396 6.77818 14.5857 5.9643L13.2876 7.48579ZM8.0299 3L13.2876 7.48579L14.5857 5.9643L9.32801 1.47852L8.0299 3ZM8.0299 3L8.0299 3L9.32801 1.47852C8.5802 0.840495 7.4796 0.840493 6.73179 1.47852L8.0299 3Z" fill="#FBF6F2" mask="url(#path-1-inside-1_646_1777)"/>
</svg>
