<svg width="16" height="16" viewBox="0 0 16 16" fill="none" xmlns="http://www.w3.org/2000/svg">
<path fill-rule="evenodd" clip-rule="evenodd" d="M2 4.8C2 4.35817 2.38376 4 2.85714 4H13.1429C13.6162 4 14 4.35817 14 4.8V11.2C14 11.6418 13.6162 12 13.1429 12H2.85714C2.38376 12 2 11.6418 2 11.2V4.8ZM2.85714 4.8H13.1429V8.63431L9.69008 5.41172L7.11865 8.21172L5 6.23431L2.85714 8.23431V4.8ZM2.85714 9.36569V11.2H9.10819L5 7.36569L2.85714 9.36569ZM10.3204 11.2H13.1429V9.76569L9.73849 6.58828L7.72653 8.77908L10.3204 11.2Z" fill="#FBF6F2"/>
</svg>
