<svg width="16" height="16" viewBox="0 0 16 16" fill="none" xmlns="http://www.w3.org/2000/svg">
<path fill-rule="evenodd" clip-rule="evenodd" d="M4.60457 5H12C13.6569 5 15 6.34315 15 8C15 9.65685 13.6569 11 12 11C10.6938 11 9.58254 10.1652 9.17071 9H6.82929C6.41746 10.1652 5.30622 11 4 11C2.34315 11 1 9.65685 1 8C1 6.71461 1.8084 5.61802 2.94452 5.19093C3.24822 5.07677 3.57532 5.01044 3.91667 5.00113C3.94435 5.00038 3.97213 5 4 5H4.60457ZM4.28937 6C4.21537 5.91731 4.11425 5.85939 4 5.84023C3.9729 5.83568 3.94506 5.83331 3.91667 5.83331C3.73957 5.83331 3.58398 5.92538 3.49515 6.06426C3.44547 6.14194 3.41667 6.23426 3.41667 6.33331V6.99998H2.75035H2.75C2.47386 6.99998 2.25 7.22384 2.25 7.49998C2.25 7.77612 2.47386 7.99998 2.75 7.99998H3.41667V8.66665C3.41667 8.94279 3.64052 9.16665 3.91667 9.16665C4.19281 9.16665 4.41667 8.94279 4.41667 8.66665V7.99998H5.08333C5.35948 7.99998 5.58333 7.77612 5.58333 7.49998C5.58333 7.22384 5.35948 6.99998 5.08333 6.99998H5.08298H4.41667V6.33331C4.41667 6.20526 4.36853 6.08846 4.28937 6ZM7.46457 10C6.77343 11.1948 5.48168 12 4 12C1.79086 12 0 10.2091 0 8C0 5.79086 1.79086 4 4 4H12C14.2091 4 16 5.79086 16 8C16 10.2091 14.2091 12 12 12C10.5183 12 9.22657 11.1948 8.53543 10H7.46457ZM12.6667 8.66665C12.6667 8.98881 12.4055 9.24998 12.0833 9.24998C11.7612 9.24998 11.5 8.98881 11.5 8.66665C11.5 8.34448 11.7612 8.08331 12.0833 8.08331C12.4055 8.08331 12.6667 8.34448 12.6667 8.66665ZM10.9166 8.08335C11.2388 8.08335 11.4999 7.82219 11.4999 7.50002C11.4999 7.17785 11.2388 6.91669 10.9166 6.91669C10.5944 6.91669 10.3333 7.17785 10.3333 7.50002C10.3333 7.82219 10.5944 8.08335 10.9166 8.08335ZM12.6667 6.33333C12.6667 6.6555 12.4055 6.91667 12.0833 6.91667C11.7612 6.91667 11.5 6.6555 11.5 6.33333C11.5 6.01117 11.7612 5.75 12.0833 5.75C12.4055 5.75 12.6667 6.01117 12.6667 6.33333ZM13.2501 8.08335C13.5722 8.08335 13.8334 7.82219 13.8334 7.50002C13.8334 7.17785 13.5722 6.91669 13.2501 6.91669C12.9279 6.91669 12.6667 7.17785 12.6667 7.50002C12.6667 7.82219 12.9279 8.08335 13.2501 8.08335Z" fill="#FBF6F2"/>
</svg>
