<svg width="16" height="16" viewBox="0 0 16 16" fill="none" xmlns="http://www.w3.org/2000/svg">
<path fill-rule="evenodd" clip-rule="evenodd" d="M4 14H4.18046H12.1529C13.1306 14 13.9649 13.2932 14.1257 12.3288L14.7923 8.3288C14.7924 8.32829 14.7925 8.32778 14.7926 8.32727L14.8974 7.69841C15.014 6.999 14.6145 6.34893 14 6.10341V6C14 4.89543 13.1046 4 12 4H6.91465C6.70873 3.4174 6.15311 3 5.5 3H4C2.89543 3 2 3.89543 2 5V12C2 13.1046 2.89543 14 4 14ZM13 6.00797V6C13 5.44772 12.5523 5 12 5H6.5C6.22386 5 6 4.77614 6 4.5C6 4.22386 5.77614 4 5.5 4H4C3.44772 4 3 4.44772 3 5V7.23245C3.30408 6.49989 4.02493 6 4.84713 6H12.8195C12.8804 6 12.9406 6.0027 13 6.00797ZM13.8061 8.16338C13.907 7.55425 13.4371 7 12.8195 7H4.84713C4.35829 7 3.9411 7.35341 3.86073 7.8356L3.19407 11.8356C3.09248 12.4451 3.56252 13 4.18046 13H12.1529C12.6417 13 13.0589 12.6466 13.1393 12.1644L13.8059 8.1644C13.806 8.16406 13.806 8.16372 13.8061 8.16338Z" fill="#FBF6F2"/>
</svg>
