<svg width="16" height="16" viewBox="0 0 16 16" fill="none" xmlns="http://www.w3.org/2000/svg">
<path d="M4 6.5H3.5V7V13C3.5 13.8284 4.17157 14.5 5 14.5H11C11.8284 14.5 12.5 13.8284 12.5 13V7V6.5H12H4Z" stroke="#FBF6F2"/>
<mask id="path-2-outside-1_663_2133" maskUnits="userSpaceOnUse" x="1" y="1" width="14" height="6" fill="black">
<rect fill="white" x="1" y="1" width="14" height="6"/>
<path fill-rule="evenodd" clip-rule="evenodd" d="M8 2C7.44772 2 7 2.44772 7 3V4H3C2.44772 4 2 4.44772 2 5C2 5.55228 2.44772 6 3 6H8H13C13.5523 6 14 5.55228 14 5C14 4.44772 13.5523 4 13 4H9V3C9 2.44772 8.55228 2 8 2Z"/>
</mask>
<path d="M7 4V5H8V4H7ZM9 4H8V5H9V4ZM8 3V1C6.89543 1 6 1.89543 6 3H8ZM8 4V3H6V4H8ZM3 5H7V3H3V5ZM3 5V3C1.89543 3 1 3.89543 1 5H3ZM3 5H3H1C1 6.10457 1.89543 7 3 7V5ZM8 5H3V7H8V5ZM13 5H8V7H13V5ZM13 5V7C14.1046 7 15 6.10457 15 5H13ZM13 5H15C15 3.89543 14.1046 3 13 3V5ZM9 5H13V3H9V5ZM8 3V4H10V3H8ZM8 3H10C10 1.89543 9.10457 1 8 1V3Z" fill="#FBF6F2" mask="url(#path-2-outside-1_663_2133)"/>
</svg>
