<svg width="16" height="16" viewBox="0 0 16 16" fill="none" xmlns="http://www.w3.org/2000/svg">
<path fill-rule="evenodd" clip-rule="evenodd" d="M11.5346 10.0058C11.5068 10.0548 11.4781 10.1031 11.4484 10.1508C11.0677 10.761 10.5297 11.2628 9.88592 11.6C9.05304 12.0363 8.09464 12.1704 7.17402 11.9793C6.25339 11.7882 5.42751 11.2838 4.83709 10.552C4.24667 9.82026 3.92824 8.90642 3.93606 7.9662C3.94388 7.02599 4.27747 6.11757 4.87998 5.39574C5.48249 4.6739 6.31665 4.18331 7.24033 4.00755C8.164 3.8318 9.12004 3.98175 9.94555 4.43186C10.5837 4.77979 11.1132 5.29043 11.4837 5.90691C11.5126 5.95506 11.5405 6.00385 11.5675 6.05325C11.5734 6.06407 11.5796 6.07464 11.5862 6.08495L9.79258 5.55364C9.52781 5.47521 9.24959 5.62626 9.17116 5.89103C9.09273 6.1558 9.24379 6.43402 9.50856 6.51245L12.2901 7.33643C12.5457 7.41213 12.8157 7.27406 12.904 7.02256L13.8645 4.28512C13.9559 4.02455 13.8188 3.7392 13.5582 3.64778C13.2976 3.55635 13.0123 3.69347 12.9209 3.95404L12.36 5.55246C12.3309 5.50058 12.3009 5.44927 12.27 5.39855C11.8151 4.65189 11.1695 4.03325 10.3936 3.61016C9.37797 3.05639 8.20177 2.87191 7.06538 3.08814C5.92899 3.30437 4.90274 3.90793 4.16147 4.796C3.42021 5.68406 3.0098 6.80168 3.00018 7.95842C2.99056 9.11515 3.38231 10.2394 4.1087 11.1397C4.83509 12.04 5.85117 12.6605 6.9838 12.8956C8.11643 13.1308 9.29554 12.9659 10.3202 12.4291C11.1031 12.0189 11.7588 11.4111 12.2261 10.6721C12.2685 10.6051 12.3094 10.5369 12.3486 10.4678C12.3663 10.4365 12.3837 10.4051 12.4008 10.3735C12.5235 10.146 12.4104 9.87 12.1725 9.76911C11.9619 9.67981 11.7243 9.75796 11.584 9.93298C11.5658 9.95569 11.5493 9.98003 11.5346 10.0058Z" fill="#FBF6F2"/>
</svg>
