<svg width="16" height="16" viewBox="0 0 16 16" fill="none" xmlns="http://www.w3.org/2000/svg">
<mask id="path-1-outside-1_636_471" maskUnits="userSpaceOnUse" x="1" y="1" width="14" height="14" fill="black">
<rect fill="white" x="1" y="1" width="14" height="14"/>
<path fill-rule="evenodd" clip-rule="evenodd" d="M9.20018 2H6.80018V3.88449C6.49784 3.97248 6.2093 4.09289 5.93857 4.24171L4.60571 2.90884L2.90865 4.6059L4.24159 5.93883C4.09287 6.20944 3.97253 6.49785 3.88457 6.80005H2V9.20005H3.88461C3.97257 9.50222 4.09291 9.7906 4.24163 10.0612L2.90865 11.3942L4.60571 13.0912L5.93864 11.7583C6.20934 11.9071 6.49786 12.0275 6.80018 12.1155V14H9.20018V12.1154C9.5023 12.0274 9.79063 11.9071 10.0612 11.7584L11.3939 13.0912L13.091 11.3941L11.7583 10.0614C11.9071 9.79078 12.0275 9.50231 12.1155 9.20005H14V6.80005H12.1155C12.0275 6.49776 11.9071 6.20926 11.7583 5.93858L13.091 4.60594L11.3939 2.90888L10.0612 4.24157C9.79068 4.09287 9.50232 3.97254 9.20018 3.88457V2ZM8.00006 10.5714C9.42023 10.5714 10.5715 9.42017 10.5715 8.00001C10.5715 6.57985 9.42023 5.42858 8.00006 5.42858C6.5799 5.42858 5.42864 6.57985 5.42864 8.00001C5.42864 9.42017 6.5799 10.5714 8.00006 10.5714Z"/>
</mask>
<path d="M6.80018 2V1C6.2479 1 5.80018 1.44772 5.80018 2H6.80018ZM9.20018 2H10.2002C10.2002 1.44772 9.75247 1 9.20018 1V2ZM6.80018 3.88449L7.07964 4.84465C7.50657 4.72038 7.80018 4.32914 7.80018 3.88449H6.80018ZM5.93857 4.24171L5.23147 4.94881C5.546 5.26334 6.03047 5.33231 6.42028 5.11804L5.93857 4.24171ZM4.60571 2.90884L5.31282 2.20174C5.12528 2.0142 4.87093 1.90884 4.60571 1.90884C4.34049 1.90884 4.08614 2.0142 3.8986 2.20174L4.60571 2.90884ZM2.90865 4.6059L2.20155 3.89879C2.01401 4.08633 1.90865 4.34068 1.90865 4.6059C1.90865 4.87112 2.01401 5.12547 2.20155 5.31301L2.90865 4.6059ZM4.24159 5.93883L5.11796 6.42046C5.33218 6.03067 5.2632 5.54624 4.94869 5.23173L4.24159 5.93883ZM3.88457 6.80005V7.80005C4.32921 7.80005 4.72045 7.50645 4.84472 7.07952L3.88457 6.80005ZM2 6.80005V5.80005C1.44772 5.80005 1 6.24776 1 6.80005H2ZM2 9.20005H1C1 9.75233 1.44772 10.2 2 10.2V9.20005ZM3.88461 9.20005L4.84475 8.92054C4.72047 8.49363 4.32924 8.20005 3.88461 8.20005V9.20005ZM4.24163 10.0612L4.94873 10.7683C5.26324 10.4538 5.33222 9.96934 5.11799 9.57954L4.24163 10.0612ZM2.90865 11.3942L2.20154 10.6871C2.01401 10.8746 1.90865 11.1289 1.90865 11.3942C1.90865 11.6594 2.01401 11.9137 2.20154 12.1013L2.90865 11.3942ZM4.60571 13.0912L3.8986 13.7983C4.08613 13.9859 4.34049 14.0912 4.60571 14.0912C4.87092 14.0912 5.12528 13.9859 5.31281 13.7983L4.60571 13.0912ZM5.93864 11.7583L6.42033 10.8819C6.03053 10.6677 5.54606 10.7367 5.23153 11.0512L5.93864 11.7583ZM6.80018 12.1155H7.80018C7.80018 11.6708 7.50657 11.2796 7.07963 11.1553L6.80018 12.1155ZM6.80018 14H5.80018C5.80018 14.5523 6.2479 15 6.80018 15V14ZM9.20018 14V15C9.75247 15 10.2002 14.5523 10.2002 14H9.20018ZM9.20018 12.1154L8.92066 11.1552C8.49375 11.2795 8.20018 11.6708 8.20018 12.1154H9.20018ZM10.0612 11.7584L10.7683 11.0513C10.4538 10.7368 9.96934 10.6678 9.57954 10.882L10.0612 11.7584ZM11.3939 13.0912L10.6868 13.7983C11.0774 14.1888 11.7105 14.1888 12.101 13.7983L11.3939 13.0912ZM13.091 11.3941L13.7981 12.1012C14.1886 11.7107 14.1886 11.0775 13.7981 10.687L13.091 11.3941ZM11.7583 10.0614L10.882 9.57973C10.6677 9.96954 10.7367 10.454 11.0512 10.7685L11.7583 10.0614ZM12.1155 9.20005V8.20005C11.6708 8.20005 11.2796 8.49363 11.1553 8.92054L12.1155 9.20005ZM14 9.20005V10.2C14.5523 10.2 15 9.75233 15 9.20005H14ZM14 6.80005H15C15 6.24776 14.5523 5.80005 14 5.80005V6.80005ZM12.1155 6.80005L11.1553 7.07952C11.2796 7.50645 11.6709 7.80005 12.1155 7.80005V6.80005ZM11.7583 5.93858L11.0512 5.23148C10.7367 5.546 10.6677 6.03047 10.882 6.42027L11.7583 5.93858ZM13.091 4.60594L13.7981 5.31304C13.9856 5.12551 14.091 4.87115 14.091 4.60594C14.091 4.34072 13.9856 4.08636 13.7981 3.89883L13.091 4.60594ZM11.3939 2.90888L12.101 2.20177C11.7105 1.81125 11.0773 1.81125 10.6868 2.20177L11.3939 2.90888ZM10.0612 4.24157L9.5796 5.11793C9.96939 5.33217 10.4538 5.26319 10.7683 4.94868L10.0612 4.24157ZM9.20018 3.88457H8.20018C8.20018 4.3292 8.49375 4.72043 8.92066 4.84471L9.20018 3.88457ZM6.80018 3H9.20018V1H6.80018V3ZM7.80018 3.88449V2H5.80018V3.88449H7.80018ZM6.42028 5.11804C6.62767 5.00404 6.84846 4.91193 7.07964 4.84465L6.52073 2.92433C6.14721 3.03304 5.79092 3.18175 5.45687 3.36537L6.42028 5.11804ZM3.8986 3.61595L5.23147 4.94881L6.64568 3.5346L5.31282 2.20174L3.8986 3.61595ZM3.61576 5.31301L5.31282 3.61595L3.8986 2.20174L2.20155 3.89879L3.61576 5.31301ZM4.94869 5.23173L3.61576 3.89879L2.20155 5.31301L3.53448 6.64594L4.94869 5.23173ZM4.84472 7.07952C4.91197 6.84846 5.00403 6.62777 5.11796 6.42046L3.36521 5.45721C3.18171 5.79111 3.03308 6.14724 2.92441 6.52057L4.84472 7.07952ZM2 7.80005H3.88457V5.80005H2V7.80005ZM3 9.20005V6.80005H1V9.20005H3ZM3.88461 8.20005H2V10.2H3.88461V8.20005ZM5.11799 9.57954C5.00407 9.37225 4.91201 9.15158 4.84475 8.92054L2.92446 9.47955C3.03313 9.85285 3.18176 10.2089 3.36526 10.5428L5.11799 9.57954ZM3.61576 12.1013L4.94873 10.7683L3.53452 9.35408L2.20154 10.6871L3.61576 12.1013ZM5.31281 12.3841L3.61576 10.6871L2.20154 12.1013L3.8986 13.7983L5.31281 12.3841ZM5.23153 11.0512L3.8986 12.3841L5.31281 13.7983L6.64575 12.4654L5.23153 11.0512ZM7.07963 11.1553C6.84848 11.088 6.62771 10.9959 6.42033 10.8819L5.45695 12.6346C5.79098 12.8182 6.14724 12.9669 6.52073 13.0756L7.07963 11.1553ZM7.80018 14V12.1155H5.80018V14H7.80018ZM9.20018 13H6.80018V15H9.20018V13ZM8.20018 12.1154V14H10.2002V12.1154H8.20018ZM9.57954 10.882C9.37229 10.9959 9.15165 11.088 8.92066 11.1552L9.47971 13.0755C9.85294 12.9669 10.209 12.8183 10.5428 12.6348L9.57954 10.882ZM12.101 12.3841L10.7683 11.0513L9.35407 12.4655L10.6868 13.7983L12.101 12.3841ZM12.3839 10.687L10.6868 12.3841L12.101 13.7983L13.7981 12.1012L12.3839 10.687ZM11.0512 10.7685L12.3839 12.1012L13.7981 10.687L12.4654 9.35433L11.0512 10.7685ZM11.1553 8.92054C11.088 9.15165 10.9959 9.37238 10.882 9.57973L12.6346 10.5431C12.8182 10.2092 12.9669 9.85297 13.0756 9.47955L11.1553 8.92054ZM14 8.20005H12.1155V10.2H14V8.20005ZM13 6.80005V9.20005H15V6.80005H13ZM12.1155 7.80005H14V5.80005H12.1155V7.80005ZM10.882 6.42027C10.996 6.62764 11.0881 6.84839 11.1553 7.07952L13.0757 6.52057C12.967 6.14712 12.8183 5.79089 12.6347 5.4569L10.882 6.42027ZM12.3839 3.89883L11.0512 5.23148L12.4654 6.64569L13.7981 5.31304L12.3839 3.89883ZM10.6868 3.61599L12.3839 5.31304L13.7981 3.89883L12.101 2.20177L10.6868 3.61599ZM10.7683 4.94868L12.101 3.61599L10.6868 2.20177L9.35413 3.53446L10.7683 4.94868ZM8.92066 4.84471C9.15167 4.91197 9.37232 5.00402 9.5796 5.11793L10.5429 3.3652C10.209 3.18172 9.85297 3.0331 9.47971 2.92443L8.92066 4.84471ZM8.20018 2V3.88457H10.2002V2H8.20018ZM9.57149 8.00001C9.57149 8.86788 8.86794 9.57144 8.00006 9.57144V11.5714C9.97251 11.5714 11.5715 9.97245 11.5715 8.00001H9.57149ZM8.00006 6.42858C8.86794 6.42858 9.57149 7.13213 9.57149 8.00001H11.5715C11.5715 6.02756 9.97251 4.42858 8.00006 4.42858V6.42858ZM6.42864 8.00001C6.42864 7.13213 7.13219 6.42858 8.00006 6.42858V4.42858C6.02762 4.42858 4.42864 6.02756 4.42864 8.00001H6.42864ZM8.00006 9.57144C7.13219 9.57144 6.42864 8.86788 6.42864 8.00001H4.42864C4.42864 9.97245 6.02762 11.5714 8.00006 11.5714V9.57144Z" fill="#FBF6F2" mask="url(#path-1-outside-1_636_471)"/>
</svg>
