<svg width="16" height="16" viewBox="0 0 16 16" fill="none" xmlns="http://www.w3.org/2000/svg">
<path fill-rule="evenodd" clip-rule="evenodd" d="M8.24553 3.25855C8.15758 3.09905 7.98984 3 7.80769 3C7.62555 3 7.45781 3.09905 7.36985 3.25855L2.06216 12.8836C1.97675 13.0384 1.97952 13.2269 2.06946 13.3792C2.1594 13.5315 2.32312 13.625 2.5 13.625H13.1154C13.2923 13.625 13.456 13.5315 13.5459 13.3792C13.6359 13.2269 13.6386 13.0384 13.5532 12.8836L8.24553 3.25855ZM7.80769 4.53543L12.2687 12.625H3.34671L7.80769 4.53543ZM8.30769 6.5625C8.30769 6.28636 8.08384 6.0625 7.80769 6.0625C7.53155 6.0625 7.30769 6.28636 7.30769 6.5625V9.71256C7.30769 9.9887 7.53155 10.2126 7.80769 10.2126C8.08384 10.2126 8.30769 9.9887 8.30769 9.71256V6.5625ZM7.80048 10.7188C7.43804 10.7188 7.14423 11.0126 7.14423 11.375C7.14423 11.7374 7.43804 12.0312 7.80048 12.0312H7.8149C8.17734 12.0312 8.47115 11.7374 8.47115 11.375C8.47115 11.0126 8.17734 10.7188 7.8149 10.7188H7.80048Z" fill="#FBF6F2"/>
</svg>
