<svg width="176" height="216" viewBox="0 0 176 216" fill="none" xmlns="http://www.w3.org/2000/svg">
<path d="M2 172H173V200C173 207.732 166.732 214 159 214H16C8.26801 214 2 207.732 2 200V172Z" fill="#00030F"/>
<path d="M2 172H173V200C173 207.732 166.732 214 159 214H16C8.26801 214 2 207.732 2 200V172Z" fill="white" fill-opacity="0.05"/>
<path d="M30 115H145L171.5 172H3L30 115Z" fill="#00030F"/>
<path d="M30 115H145L171.5 172H3L30 115Z" fill="white" fill-opacity="0.05"/>
<path d="M12 144V158.5C27.2 171.7 42.6667 164 48.5 158.5L47.5 144C41 133 14 135 12 144Z" fill="#0068FA"/>
<ellipse cx="87" cy="39" rx="36" ry="37" fill="#0068FA"/>
<path d="M82.5 50.4999L85.5 62.4999L82.5 64.9999L75.5 62.4999L66 56.9999L62.5 49.9999L64.5 40.4999L62 38.4999L58 30.9999L52.5 27.4999C50.1667 35.1665 46.9 45.7999 52.5 26.9999C58.1 8.19987 74.1667 3.16653 81.5 2.99987C87.1667 1.99987 99.8 1.59987 105 7.99987C128.6 19.1998 124.833 43.6666 120 54.5L115 52L110.5 46L109 37.5L102 30L98.5 20.5L105 7.99987C99.8 1.59987 87.1667 1.99987 81.5 2.99987L83.5 7.99987L83 12.9999L73.5 31.9999L83 42.9999L82.5 50.4999Z" fill="#34FE6D"/>
<path d="M48 143L39.5 137.5L40.5 133.5L44 128.5L49 123.5L55.5 119L59 114L64 107.5L66.5 101.5L76 97.5H78.5V107L86.5 110.5L94.5 109L97 107V97.5H100L106.5 100.5L112 108.5L115.5 114L120 119.5L127.5 124.5L133.5 131.5V139.5L124.5 150L107.5 157.5L85 159.5L60 154L48 150V143Z" fill="#00030F"/>
<path d="M48 143L39.5 137.5L40.5 133.5L44 128.5L49 123.5L55.5 119L59 114L64 107.5L66.5 101.5L76 97.5H78.5V107L86.5 110.5L94.5 109L97 107V97.5H100L106.5 100.5L112 108.5L115.5 114L120 119.5L127.5 124.5L133.5 131.5V139.5L124.5 150L107.5 157.5L85 159.5L60 154L48 150V143Z" fill="white" fill-opacity="0.1"/>
<rect x="79" y="75" width="17" height="34" fill="#00030F"/>
<rect x="79" y="75" width="17" height="34" fill="white" fill-opacity="0.2"/>
<path d="M12 158.781H10V159.66L10.6478 160.255L12 158.781ZM12 143.292L10.1128 142.63L10 142.951V143.292H12ZM48 143.292H50C50 142.821 49.8335 142.364 49.5298 142.004L48 143.292ZM48 158.781L49.5298 160.069L50 159.511V158.781H48ZM28 118.5L26.3359 117.391L26.2787 117.476L26.2307 117.568L28 118.5ZM59 114L60.715 115.029L60.8279 114.841L60.8974 114.632L59 114ZM87.5 75.5L87.3891 77.4969L87.5 77.5031L87.6109 77.4969L87.5 75.5ZM2 173L0.179785 172.171L0 172.566V173H2ZM2 199L4 199V199H2ZM18 214L17.9394 215.999L17.9697 216H18V214ZM173.5 173H175.5V172.547L175.305 172.139L173.5 173ZM147.5 118.5L149.305 117.639L149.273 117.572L149.236 117.508L147.5 118.5ZM139 114V116H139.083L139.166 115.993L139 114ZM115.5 114L113.56 114.485L113.613 114.698L113.711 114.894L115.5 114ZM78.5 107.5H76.5V108.398L77.1713 108.995L78.5 107.5ZM97 107.5L98.5051 108.817L99 108.251V107.5H97ZM47 126L48.857 126.743L47 126ZM129 126L130.414 124.586L130.336 124.507L130.249 124.438L129 126ZM133 137.975L131.213 137.076L130.983 137.534L131.001 138.047L133 137.975ZM52.6178 26.5L50.7215 25.8644L52.6178 26.5ZM58 31.5L56.1026 32.1325L58 31.5ZM85.5 63L84.2925 61.4056L84.183 61.4886L84.0858 61.5858L85.5 63ZM80.5 2.94593L80.2172 0.966028L80.5 2.94593ZM79 21.5L77.3556 20.3616L79 21.5ZM82 50L80.0122 49.7791L80 49.8892V50H82ZM105.18 7L106.137 5.24342L105.18 7ZM108 36L106.72 37.5364L106.838 37.6354L106.971 37.715L108 36ZM111 48L109.143 48.7428L109.171 48.8116L109.203 48.8783L111 48ZM46.4702 157.493C43.2573 161.308 37.7101 163.767 31.4954 163.984C25.3187 164.2 18.6699 162.187 13.3522 157.307L10.6478 160.255C16.8084 165.907 24.5074 168.231 31.635 167.982C38.7246 167.734 45.4384 164.928 49.5298 160.069L46.4702 157.493ZM10.3947 144.485C11.9924 146.635 14.5366 148.317 17.4607 149.502C20.4113 150.698 23.8937 151.449 27.5478 151.64C34.828 152.02 43.0781 150.185 49.3072 144.806L46.6928 141.778C41.4436 146.312 34.3024 147.987 27.7566 147.645C24.4976 147.475 21.4583 146.806 18.9632 145.795C16.4417 144.773 14.6163 143.46 13.6053 142.099L10.3947 144.485ZM13.8872 143.954C14.2786 142.839 15.6778 141.448 18.3276 140.243L16.6724 136.602C13.7012 137.952 11.0525 139.952 10.1128 142.63L13.8872 143.954ZM19.2693 139.355L29.7693 119.432L26.2307 117.568L15.7307 137.49L19.2693 139.355ZM29.6641 119.609C30.0405 119.045 30.8519 118.098 31.9448 117.31C33.0375 116.522 34.2588 116 35.5 116V112C33.1412 112 31.1125 112.978 29.6052 114.065C28.0981 115.152 26.9595 116.455 26.3359 117.391L29.6641 119.609ZM35.5 116C35.507 116 35.5141 116 35.5212 116C35.5283 116 35.5355 116 35.5426 116C35.5498 116 35.557 116 35.5643 116C35.5716 116 35.5789 116 35.5862 116C35.5935 116 35.6009 116 35.6083 116C35.6157 116 35.6232 116 35.6306 116C35.6381 116 35.6456 116 35.6532 116C35.6608 116 35.6684 116 35.676 116C35.6836 116 35.6913 116 35.699 116C35.7067 116 35.7144 116 35.7222 116C35.73 116 35.7378 116 35.7457 116C35.7535 116 35.7614 116 35.7693 116C35.7773 116 35.7852 116 35.7932 116C35.8012 116 35.8092 116 35.8173 116C35.8254 116 35.8335 116 35.8416 116C35.8498 116 35.858 116 35.8662 116C35.8744 116 35.8826 116 35.8909 116C35.8992 116 35.9075 116 35.9159 116C35.9243 116 35.9326 116 35.9411 116C35.9495 116 35.958 116 35.9665 116C35.975 116 35.9835 116 35.9921 116C36.0007 116 36.0093 116 36.0179 116C36.0265 116 36.0352 116 36.0439 116C36.0526 116 36.0614 116 36.0702 116C36.079 116 36.0878 116 36.0966 116C36.1055 116 36.1144 116 36.1233 116C36.1322 116 36.1412 116 36.1502 116C36.1591 116 36.1682 116 36.1772 116C36.1863 116 36.1954 116 36.2045 116C36.2136 116 36.2228 116 36.232 116C36.2412 116 36.2504 116 36.2597 116C36.269 116 36.2783 116 36.2876 116C36.2969 116 36.3063 116 36.3157 116C36.3251 116 36.3345 116 36.344 116C36.3535 116 36.363 116 36.3725 116C36.382 116 36.3916 116 36.4012 116C36.4108 116 36.4205 116 36.4301 116C36.4398 116 36.4495 116 36.4592 116C36.469 116 36.4787 116 36.4885 116C36.4983 116 36.5082 116 36.518 116C36.5279 116 36.5378 116 36.5477 116C36.5577 116 36.5676 116 36.5776 116C36.5876 116 36.5977 116 36.6077 116C36.6178 116 36.6279 116 36.638 116C36.6482 116 36.6583 116 36.6685 116C36.6787 116 36.6889 116 36.6992 116C36.7094 116 36.7197 116 36.7301 116C36.7404 116 36.7507 116 36.7611 116C36.7715 116 36.7819 116 36.7924 116C36.8028 116 36.8133 116 36.8238 116C36.8343 116 36.8449 116 36.8554 116C36.866 116 36.8766 116 36.8873 116C36.8979 116 36.9086 116 36.9193 116C36.93 116 36.9407 116 36.9515 116C36.9622 116 36.973 116 36.9839 116C36.9947 116 37.0055 116 37.0164 116C37.0273 116 37.0382 116 37.0492 116C37.0601 116 37.0711 116 37.0821 116C37.0931 116 37.1042 116 37.1153 116C37.1263 116 37.1374 116 37.1486 116C37.1597 116 37.1709 116 37.182 116C37.1932 116 37.2045 116 37.2157 116C37.227 116 37.2383 116 37.2496 116C37.2609 116 37.2722 116 37.2836 116C37.295 116 37.3064 116 37.3178 116C37.3292 116 37.3407 116 37.3522 116C37.3637 116 37.3752 116 37.3868 116C37.3983 116 37.4099 116 37.4215 116C37.4331 116 37.4447 116 37.4564 116C37.4681 116 37.4798 116 37.4915 116C37.5032 116 37.515 116 37.5268 116C37.5385 116 37.5504 116 37.5622 116C37.574 116 37.5859 116 37.5978 116C37.6097 116 37.6216 116 37.6336 116C37.6456 116 37.6575 116 37.6696 116C37.6816 116 37.6936 116 37.7057 116C37.7177 116 37.7298 116 37.742 116C37.7541 116 37.7663 116 37.7784 116C37.7906 116 37.8028 116 37.8151 116C37.8273 116 37.8396 116 37.8519 116C37.8642 116 37.8765 116 37.8888 116C37.9012 116 37.9136 116 37.926 116C37.9384 116 37.9508 116 37.9633 116C37.9757 116 37.9882 116 38.0007 116C38.0132 116 38.0258 116 38.0383 116C38.0509 116 38.0635 116 38.0761 116C38.0888 116 38.1014 116 38.1141 116C38.1268 116 38.1395 116 38.1522 116C38.1649 116 38.1777 116 38.1905 116C38.2033 116 38.2161 116 38.2289 116C38.2417 116 38.2546 116 38.2675 116C38.2804 116 38.2933 116 38.3062 116C38.3192 116 38.3321 116 38.3451 116C38.3581 116 38.3712 116 38.3842 116C38.3972 116 38.4103 116 38.4234 116C38.4365 116 38.4496 116 38.4628 116C38.4759 116 38.4891 116 38.5023 116C38.5155 116 38.5287 116 38.542 116C38.5553 116 38.5685 116 38.5818 116C38.5951 116 38.6085 116 38.6218 116C38.6352 116 38.6486 116 38.662 116C38.6754 116 38.6888 116 38.7022 116C38.7157 116 38.7292 116 38.7427 116C38.7562 116 38.7697 116 38.7833 116C38.7968 116 38.8104 116 38.824 116C38.8376 116 38.8512 116 38.8649 116C38.8785 116 38.8922 116 38.9059 116C38.9196 116 38.9333 116 38.9471 116C38.9608 116 38.9746 116 38.9884 116C39.0022 116 39.016 116 39.0299 116C39.0437 116 39.0576 116 39.0715 116C39.0854 116 39.0993 116 39.1132 116C39.1272 116 39.1411 116 39.1551 116C39.1691 116 39.1831 116 39.1971 116C39.2112 116 39.2252 116 39.2393 116C39.2534 116 39.2675 116 39.2816 116C39.2958 116 39.3099 116 39.3241 116C39.3383 116 39.3525 116 39.3667 116C39.3809 116 39.3951 116 39.4094 116C39.4237 116 39.438 116 39.4523 116C39.4666 116 39.4809 116 39.4953 116C39.5096 116 39.524 116 39.5384 116C39.5528 116 39.5672 116 39.5817 116C39.5961 116 39.6106 116 39.6251 116C39.6396 116 39.6541 116 39.6686 116C39.6831 116 39.6977 116 39.7123 116C39.7268 116 39.7415 116 39.7561 116C39.7707 116 39.7853 116 39.8 116C39.8147 116 39.8293 116 39.8441 116C39.8588 116 39.8735 116 39.8882 116C39.903 116 39.9178 116 39.9326 116C39.9474 116 39.9622 116 39.977 116C39.9918 116 40.0067 116 40.0216 116C40.0365 116 40.0514 116 40.0663 116C40.0812 116 40.0961 116 40.1111 116C40.1261 116 40.141 116 40.156 116C40.171 116 40.1861 116 40.2011 116C40.2161 116 40.2312 116 40.2463 116C40.2614 116 40.2765 116 40.2916 116C40.3067 116 40.3219 116 40.337 116C40.3522 116 40.3674 116 40.3826 116C40.3978 116 40.413 116 40.4283 116C40.4435 116 40.4588 116 40.4741 116C40.4894 116 40.5047 116 40.52 116C40.5353 116 40.5507 116 40.566 116C40.5814 116 40.5968 116 40.6122 116C40.6276 116 40.643 116 40.6584 116C40.6739 116 40.6893 116 40.7048 116C40.7203 116 40.7358 116 40.7513 116C40.7668 116 40.7823 116 40.7979 116C40.8134 116 40.829 116 40.8446 116C40.8602 116 40.8758 116 40.8914 116C40.9071 116 40.9227 116 40.9384 116C40.954 116 40.9697 116 40.9854 116C41.0011 116 41.0169 116 41.0326 116C41.0483 116 41.0641 116 41.0799 116C41.0956 116 41.1114 116 41.1272 116C41.1431 116 41.1589 116 41.1747 116C41.1906 116 41.2064 116 41.2223 116C41.2382 116 41.2541 116 41.27 116C41.2859 116 41.3019 116 41.3178 116C41.3338 116 41.3497 116 41.3657 116C41.3817 116 41.3977 116 41.4137 116C41.4298 116 41.4458 116 41.4619 116C41.4779 116 41.494 116 41.5101 116C41.5262 116 41.5423 116 41.5584 116C41.5745 116 41.5906 116 41.6068 116C41.623 116 41.6391 116 41.6553 116C41.6715 116 41.6877 116 41.7039 116C41.7202 116 41.7364 116 41.7527 116C41.7689 116 41.7852 116 41.8015 116C41.8178 116 41.8341 116 41.8504 116C41.8667 116 41.883 116 41.8994 116C41.9157 116 41.9321 116 41.9485 116C41.9649 116 41.9813 116 41.9977 116C42.0141 116 42.0305 116 42.047 116C42.0634 116 42.0799 116 42.0963 116C42.1128 116 42.1293 116 42.1458 116C42.1623 116 42.1788 116 42.1954 116C42.2119 116 42.2285 116 42.245 116C42.2616 116 42.2782 116 42.2948 116C42.3114 116 42.328 116 42.3446 116C42.3612 116 42.3779 116 42.3945 116C42.4112 116 42.4279 116 42.4445 116C42.4612 116 42.4779 116 42.4946 116C42.5113 116 42.5281 116 42.5448 116C42.5616 116 42.5783 116 42.5951 116C42.6118 116 42.6286 116 42.6454 116C42.6622 116 42.679 116 42.6959 116C42.7127 116 42.7295 116 42.7464 116C42.7632 116 42.7801 116 42.797 116C42.8139 116 42.8307 116 42.8477 116C42.8646 116 42.8815 116 42.8984 116C42.9153 116 42.9323 116 42.9493 116C42.9662 116 42.9832 116 43.0002 116C43.0172 116 43.0342 116 43.0512 116C43.0682 116 43.0852 116 43.1022 116C43.1193 116 43.1363 116 43.1534 116C43.1705 116 43.1875 116 43.2046 116C43.2217 116 43.2388 116 43.2559 116C43.273 116 43.2902 116 43.3073 116C43.3244 116 43.3416 116 43.3588 116C43.3759 116 43.3931 116 43.4103 116C43.4275 116 43.4447 116 43.4619 116C43.4791 116 43.4963 116 43.5135 116C43.5308 116 43.548 116 43.5653 116C43.5825 116 43.5998 116 43.6171 116C43.6344 116 43.6517 116 43.669 116C43.6863 116 43.7036 116 43.7209 116C43.7382 116 43.7556 116 43.7729 116C43.7903 116 43.8076 116 43.825 116C43.8424 116 43.8597 116 43.8771 116C43.8945 116 43.9119 116 43.9293 116C43.9468 116 43.9642 116 43.9816 116C43.9991 116 44.0165 116 44.034 116C44.0514 116 44.0689 116 44.0863 116C44.1038 116 44.1213 116 44.1388 116C44.1563 116 44.1738 116 44.1913 116C44.2089 116 44.2264 116 44.2439 116C44.2615 116 44.279 116 44.2966 116C44.3141 116 44.3317 116 44.3493 116C44.3668 116 44.3844 116 44.402 116C44.4196 116 44.4372 116 44.4548 116C44.4725 116 44.4901 116 44.5077 116C44.5253 116 44.543 116 44.5606 116C44.5783 116 44.596 116 44.6136 116C44.6313 116 44.649 116 44.6667 116C44.6844 116 44.7021 116 44.7198 116C44.7375 116 44.7552 116 44.7729 116C44.7906 116 44.8084 116 44.8261 116C44.8438 116 44.8616 116 44.8794 116C44.8971 116 44.9149 116 44.9327 116C44.9504 116 44.9682 116 44.986 116C45.0038 116 45.0216 116 45.0394 116C45.0572 116 45.075 116 45.0928 116C45.1107 116 45.1285 116 45.1463 116C45.1642 116 45.182 116 45.1999 116C45.2177 116 45.2356 116 45.2535 116C45.2713 116 45.2892 116 45.3071 116C45.325 116 45.3429 116 45.3608 116C45.3787 116 45.3966 116 45.4145 116C45.4324 116 45.4503 116 45.4683 116C45.4862 116 45.5041 116 45.5221 116C45.54 116 45.558 116 45.5759 116C45.5939 116 45.6118 116 45.6298 116C45.6478 116 45.6657 116 45.6837 116C45.7017 116 45.7197 116 45.7377 116C45.7557 116 45.7737 116 45.7917 116C45.8097 116 45.8277 116 45.8457 116C45.8638 116 45.8818 116 45.8998 116C45.9178 116 45.9359 116 45.9539 116C45.972 116 45.99 116 46.0081 116C46.0261 116 46.0442 116 46.0623 116C46.0803 116 46.0984 116 46.1165 116C46.1345 116 46.1526 116 46.1707 116C46.1888 116 46.2069 116 46.225 116C46.2431 116 46.2612 116 46.2793 116C46.2974 116 46.3155 116 46.3337 116C46.3518 116 46.3699 116 46.388 116C46.4062 116 46.4243 116 46.4424 116C46.4606 116 46.4787 116 46.4969 116C46.515 116 46.5332 116 46.5513 116C46.5695 116 46.5876 116 46.6058 116C46.624 116 46.6421 116 46.6603 116C46.6785 116 46.6967 116 46.7148 116C46.733 116 46.7512 116 46.7694 116C46.7876 116 46.8058 116 46.824 116C46.8422 116 46.8604 116 46.8786 116C46.8968 116 46.915 116 46.9332 116C46.9514 116 46.9697 116 46.9879 116C47.0061 116 47.0243 116 47.0425 116C47.0608 116 47.079 116 47.0972 116C47.1155 116 47.1337 116 47.1519 116C47.1702 116 47.1884 116 47.2067 116C47.2249 116 47.2432 116 47.2614 116C47.2797 116 47.2979 116 47.3162 116C47.3344 116 47.3527 116 47.3709 116C47.3892 116 47.4075 116 47.4257 116C47.444 116 47.4623 116 47.4805 116C47.4988 116 47.5171 116 47.5354 116C47.5536 116 47.5719 116 47.5902 116C47.6085 116 47.6268 116 47.645 116C47.6633 116 47.6816 116 47.6999 116C47.7182 116 47.7365 116 47.7548 116C47.7731 116 47.7913 116 47.8096 116C47.8279 116 47.8462 116 47.8645 116C47.8828 116 47.9011 116 47.9194 116C47.9377 116 47.956 116 47.9743 116C47.9926 116 48.0109 116 48.0292 116C48.0475 116 48.0658 116 48.0841 116C48.1024 116 48.1207 116 48.1391 116C48.1574 116 48.1757 116 48.194 116C48.2123 116 48.2306 116 48.2489 116C48.2672 116 48.2855 116 48.3038 116C48.3221 116 48.3405 116 48.3588 116C48.3771 116 48.3954 116 48.4137 116C48.432 116 48.4503 116 48.4686 116C48.4869 116 48.5053 116 48.5236 116C48.5419 116 48.5602 116 48.5785 116C48.5968 116 48.6151 116 48.6334 116C48.6517 116 48.67 116 48.6884 116C48.7067 116 48.725 116 48.7433 116C48.7616 116 48.7799 116 48.7982 116C48.8165 116 48.8348 116 48.8531 116C48.8714 116 48.8897 116 48.908 116C48.9263 116 48.9446 116 48.9629 116C48.9812 116 48.9995 116 49.0178 116C49.0361 116 49.0544 116 49.0727 116C49.091 116 49.1093 116 49.1276 116C49.1459 116 49.1642 116 49.1825 116C49.2007 116 49.219 116 49.2373 116C49.2556 116 49.2739 116 49.2922 116C49.3104 116 49.3287 116 49.347 116C49.3653 116 49.3836 116 49.4018 116C49.4201 116 49.4384 116 49.4566 116C49.4749 116 49.4932 116 49.5114 116C49.5297 116 49.548 116 49.5662 116C49.5845 116 49.6027 116 49.621 116C49.6392 116 49.6575 116 49.6757 116C49.694 116 49.7122 116 49.7305 116C49.7487 116 49.7669 116 49.7852 116C49.8034 116 49.8217 116 49.8399 116C49.8581 116 49.8763 116 49.8946 116C49.9128 116 49.931 116 49.9492 116C49.9674 116 49.9856 116 50.0038 116C50.0221 116 50.0403 116 50.0585 116C50.0767 116 50.0949 116 50.1131 116C50.1312 116 50.1494 116 50.1676 116C50.1858 116 50.204 116 50.2222 116C50.2403 116 50.2585 116 50.2767 116C50.2949 116 50.313 116 50.3312 116C50.3493 116 50.3675 116 50.3856 116C50.4038 116 50.4219 116 50.4401 116C50.4582 116 50.4764 116 50.4945 116C50.5126 116 50.5308 116 50.5489 116C50.567 116 50.5851 116 50.6032 116C50.6213 116 50.6395 116 50.6576 116C50.6757 116 50.6938 116 50.7118 116C50.7299 116 50.748 116 50.7661 116C50.7842 116 50.8023 116 50.8203 116C50.8384 116 50.8565 116 50.8745 116C50.8926 116 50.9106 116 50.9287 116C50.9467 116 50.9648 116 50.9828 116C51.0009 116 51.0189 116 51.0369 116C51.0549 116 51.073 116 51.091 116C51.109 116 51.127 116 51.145 116C51.163 116 51.181 116 51.199 116C51.2169 116 51.2349 116 51.2529 116C51.2709 116 51.2888 116 51.3068 116C51.3248 116 51.3427 116 51.3607 116C51.3786 116 51.3965 116 51.4145 116C51.4324 116 51.4503 116 51.4683 116C51.4862 116 51.5041 116 51.522 116C51.5399 116 51.5578 116 51.5757 116C51.5936 116 51.6115 116 51.6293 116C51.6472 116 51.6651 116 51.6829 116C51.7008 116 51.7187 116 51.7365 116C51.7543 116 51.7722 116 51.79 116C51.8078 116 51.8257 116 51.8435 116C51.8613 116 51.8791 116 51.8969 116C51.9147 116 51.9325 116 51.9503 116C51.968 116 51.9858 116 52.0036 116C52.0213 116 52.0391 116 52.0568 116C52.0746 116 52.0923 116 52.1101 116C52.1278 116 52.1455 116 52.1632 116C52.1809 116 52.1986 116 52.2163 116C52.234 116 52.2517 116 52.2694 116C52.2871 116 52.3047 116 52.3224 116C52.3401 116 52.3577 116 52.3754 116C52.393 116 52.4106 116 52.4282 116C52.4459 116 52.4635 116 52.4811 116C52.4987 116 52.5163 116 52.5339 116C52.5514 116 52.569 116 52.5866 116C52.6042 116 52.6217 116 52.6393 116C52.6568 116 52.6743 116 52.6919 116C52.7094 116 52.7269 116 52.7444 116C52.7619 116 52.7794 116 52.7969 116C52.8144 116 52.8318 116 52.8493 116C52.8668 116 52.8842 116 52.9017 116C52.9191 116 52.9365 116 52.954 116C52.9714 116 52.9888 116 53.0062 116C53.0236 116 53.041 116 53.0584 116C53.0757 116 53.0931 116 53.1105 116C53.1278 116 53.1452 116 53.1625 116C53.1798 116 53.1972 116 53.2145 116C53.2318 116 53.2491 116 53.2664 116C53.2837 116 53.3009 116 53.3182 116C53.3355 116 53.3527 116 53.37 116C53.3872 116 53.4044 116 53.4217 116C53.4389 116 53.4561 116 53.4733 116C53.4905 116 53.5077 116 53.5248 116C53.542 116 53.5592 116 53.5763 116C53.5934 116 53.6106 116 53.6277 116C53.6448 116 53.6619 116 53.679 116C53.6961 116 53.7132 116 53.7303 116C53.7474 116 53.7644 116 53.7815 116C53.7985 116 53.8155 116 53.8326 116C53.8496 116 53.8666 116 53.8836 116C53.9006 116 53.9176 116 53.9345 116C53.9515 116 53.9685 116 53.9854 116C54.0024 116 54.0193 116 54.0362 116C54.0531 116 54.07 116 54.0869 116C54.1038 116 54.1207 116 54.1375 116C54.1544 116 54.1712 116 54.1881 116C54.2049 116 54.2217 116 54.2385 116C54.2554 116 54.2722 116 54.2889 116C54.3057 116 54.3225 116 54.3392 116C54.356 116 54.3727 116 54.3894 116C54.4062 116 54.4229 116 54.4396 116C54.4563 116 54.4729 116 54.4896 116C54.5063 116 54.5229 116 54.5396 116C54.5562 116 54.5728 116 54.5894 116C54.606 116 54.6226 116 54.6392 116C54.6558 116 54.6723 116 54.6889 116C54.7054 116 54.722 116 54.7385 116C54.755 116 54.7715 116 54.788 116C54.8045 116 54.8209 116 54.8374 116C54.8539 116 54.8703 116 54.8867 116C54.9031 116 54.9196 116 54.936 116C54.9523 116 54.9687 116 54.9851 116C55.0014 116 55.0178 116 55.0341 116C55.0505 116 55.0668 116 55.0831 116C55.0994 116 55.1157 116 55.1319 116C55.1482 116 55.1644 116 55.1807 116C55.1969 116 55.2131 116 55.2293 116C55.2455 116 55.2617 116 55.2779 116C55.294 116 55.3102 116 55.3263 116C55.3425 116 55.3586 116 55.3747 116C55.3908 116 55.4069 116 55.4229 116C55.439 116 55.4551 116 55.4711 116C55.4871 116 55.5031 116 55.5191 116C55.5351 116 55.5511 116 55.5671 116C55.583 116 55.599 116 55.6149 116C55.6308 116 55.6468 116 55.6627 116C55.6786 116 55.6944 116 55.7103 116C55.7261 116 55.742 116 55.7578 116C55.7736 116 55.7894 116 55.8052 116C55.821 116 55.8368 116 55.8525 116C55.8683 116 55.884 116 55.8997 116C55.9155 116 55.9312 116 55.9468 116C55.9625 116 55.9782 116 55.9938 116C56.0095 116 56.0251 116 56.0407 116C56.0563 116 56.0719 116 56.0874 116C56.103 116 56.1186 116 56.1341 116C56.1496 116 56.1651 116 56.1806 116C56.1961 116 56.2116 116 56.227 116C56.2425 116 56.2579 116 56.2733 116C56.2888 116 56.3042 116 56.3195 116C56.3349 116 56.3503 116 56.3656 116C56.3809 116 56.3963 116 56.4116 116C56.4269 116 56.4421 116 56.4574 116C56.4727 116 56.4879 116 56.5031 116C56.5183 116 56.5335 116 56.5487 116C56.5639 116 56.5791 116 56.5942 116C56.6093 116 56.6245 116 56.6395 116C56.6546 116 56.6697 116 56.6848 116C56.6998 116 56.7149 116 56.7299 116C56.7449 116 56.7599 116 56.7749 116C56.7899 116 56.8048 116 56.8198 116C56.8347 116 56.8496 116 56.8645 116C56.8794 116 56.8943 116 56.9091 116C56.924 116 56.9388 116 56.9536 116C56.9684 116 56.9832 116 56.998 116C57.0127 116 57.0275 116 57.0422 116C57.0569 116 57.0716 116 57.0863 116C57.101 116 57.1156 116 57.1303 116C57.1449 116 57.1595 116 57.1741 116C57.1887 116 57.2033 116 57.2178 116C57.2324 116 57.2469 116 57.2614 116C57.2759 116 57.2904 116 57.3049 116C57.3193 116 57.3338 116 57.3482 116C57.3626 116 57.377 116 57.3914 116C57.4058 116 57.4201 116 57.4344 116C57.4488 116 57.4631 116 57.4773 116C57.4916 116 57.5059 116 57.5201 116C57.5344 116 57.5486 116 57.5628 116C57.577 116 57.5911 116 57.6053 116C57.6194 116 57.6335 116 57.6476 116C57.6617 116 57.6758 116 57.6898 116C57.7039 116 57.7179 116 57.7319 116C57.7459 116 57.7599 116 57.7739 116C57.7878 116 57.8018 116 57.8157 116C57.8296 116 57.8435 116 57.8573 116C57.8712 116 57.885 116 57.8989 116C57.9127 116 57.9265 116 57.9402 116C57.954 116 57.9677 116 57.9814 116C57.9952 116 58.0089 116 58.0225 116C58.0362 116 58.0498 116 58.0635 116C58.0771 116 58.0907 116 58.1043 116C58.1178 116 58.1314 116 58.1449 116C58.1584 116 58.1719 116 58.1854 116C58.1989 116 58.2123 116 58.2257 116C58.2391 116 58.2525 116 58.2659 116C58.2793 116 58.2926 116 58.306 116C58.3193 116 58.3326 116 58.3458 116C58.3591 116 58.3724 116 58.3856 116C58.3988 116 58.412 116 58.4252 116C58.4383 116 58.4515 116 58.4646 116C58.4777 116 58.4908 116 58.5039 116C58.5169 116 58.53 116 58.543 116C58.556 116 58.569 116 58.582 116C58.5949 116 58.6078 116 58.6208 116C58.6337 116 58.6465 116 58.6594 116C58.6723 116 58.6851 116 58.6979 116C58.7107 116 58.7235 116 58.7362 116C58.749 116 58.7617 116 58.7744 116C58.7871 116 58.7998 116 58.8124 116C58.825 116 58.8377 116 58.8502 116C58.8628 116 58.8754 116 58.8879 116C58.9005 116 58.913 116 58.9254 116C58.9379 116 58.9504 116 58.9628 116C58.9752 116 58.9876 116 59 116V112C58.9876 112 58.9752 112 58.9628 112C58.9504 112 58.9379 112 58.9254 112C58.913 112 58.9005 112 58.8879 112C58.8754 112 58.8628 112 58.8502 112C58.8377 112 58.825 112 58.8124 112C58.7998 112 58.7871 112 58.7744 112C58.7617 112 58.749 112 58.7362 112C58.7235 112 58.7107 112 58.6979 112C58.6851 112 58.6723 112 58.6594 112C58.6465 112 58.6337 112 58.6208 112C58.6078 112 58.5949 112 58.582 112C58.569 112 58.556 112 58.543 112C58.53 112 58.5169 112 58.5039 112C58.4908 112 58.4777 112 58.4646 112C58.4515 112 58.4383 112 58.4252 112C58.412 112 58.3988 112 58.3856 112C58.3724 112 58.3591 112 58.3458 112C58.3326 112 58.3193 112 58.306 112C58.2926 112 58.2793 112 58.2659 112C58.2525 112 58.2391 112 58.2257 112C58.2123 112 58.1989 112 58.1854 112C58.1719 112 58.1584 112 58.1449 112C58.1314 112 58.1178 112 58.1043 112C58.0907 112 58.0771 112 58.0635 112C58.0498 112 58.0362 112 58.0225 112C58.0089 112 57.9952 112 57.9814 112C57.9677 112 57.954 112 57.9402 112C57.9265 112 57.9127 112 57.8989 112C57.885 112 57.8712 112 57.8573 112C57.8435 112 57.8296 112 57.8157 112C57.8018 112 57.7878 112 57.7739 112C57.7599 112 57.7459 112 57.7319 112C57.7179 112 57.7039 112 57.6898 112C57.6758 112 57.6617 112 57.6476 112C57.6335 112 57.6194 112 57.6053 112C57.5911 112 57.577 112 57.5628 112C57.5486 112 57.5344 112 57.5201 112C57.5059 112 57.4916 112 57.4773 112C57.4631 112 57.4488 112 57.4344 112C57.4201 112 57.4058 112 57.3914 112C57.377 112 57.3626 112 57.3482 112C57.3338 112 57.3193 112 57.3049 112C57.2904 112 57.2759 112 57.2614 112C57.2469 112 57.2324 112 57.2178 112C57.2033 112 57.1887 112 57.1741 112C57.1595 112 57.1449 112 57.1303 112C57.1156 112 57.101 112 57.0863 112C57.0716 112 57.0569 112 57.0422 112C57.0275 112 57.0127 112 56.998 112C56.9832 112 56.9684 112 56.9536 112C56.9388 112 56.924 112 56.9091 112C56.8943 112 56.8794 112 56.8645 112C56.8496 112 56.8347 112 56.8198 112C56.8048 112 56.7899 112 56.7749 112C56.7599 112 56.7449 112 56.7299 112C56.7149 112 56.6998 112 56.6848 112C56.6697 112 56.6546 112 56.6395 112C56.6245 112 56.6093 112 56.5942 112C56.5791 112 56.5639 112 56.5487 112C56.5335 112 56.5183 112 56.5031 112C56.4879 112 56.4727 112 56.4574 112C56.4421 112 56.4269 112 56.4116 112C56.3963 112 56.3809 112 56.3656 112C56.3503 112 56.3349 112 56.3195 112C56.3042 112 56.2888 112 56.2733 112C56.2579 112 56.2425 112 56.227 112C56.2116 112 56.1961 112 56.1806 112C56.1651 112 56.1496 112 56.1341 112C56.1186 112 56.103 112 56.0874 112C56.0719 112 56.0563 112 56.0407 112C56.0251 112 56.0095 112 55.9938 112C55.9782 112 55.9625 112 55.9468 112C55.9312 112 55.9155 112 55.8997 112C55.884 112 55.8683 112 55.8525 112C55.8368 112 55.821 112 55.8052 112C55.7894 112 55.7736 112 55.7578 112C55.742 112 55.7261 112 55.7103 112C55.6944 112 55.6786 112 55.6627 112C55.6468 112 55.6308 112 55.6149 112C55.599 112 55.583 112 55.5671 112C55.5511 112 55.5351 112 55.5191 112C55.5031 112 55.4871 112 55.4711 112C55.4551 112 55.439 112 55.4229 112C55.4069 112 55.3908 112 55.3747 112C55.3586 112 55.3425 112 55.3263 112C55.3102 112 55.294 112 55.2779 112C55.2617 112 55.2455 112 55.2293 112C55.2131 112 55.1969 112 55.1807 112C55.1644 112 55.1482 112 55.1319 112C55.1157 112 55.0994 112 55.0831 112C55.0668 112 55.0505 112 55.0341 112C55.0178 112 55.0014 112 54.9851 112C54.9687 112 54.9523 112 54.936 112C54.9196 112 54.9031 112 54.8867 112C54.8703 112 54.8539 112 54.8374 112C54.8209 112 54.8045 112 54.788 112C54.7715 112 54.755 112 54.7385 112C54.722 112 54.7054 112 54.6889 112C54.6723 112 54.6558 112 54.6392 112C54.6226 112 54.606 112 54.5894 112C54.5728 112 54.5562 112 54.5396 112C54.5229 112 54.5063 112 54.4896 112C54.4729 112 54.4563 112 54.4396 112C54.4229 112 54.4062 112 54.3894 112C54.3727 112 54.356 112 54.3392 112C54.3225 112 54.3057 112 54.2889 112C54.2722 112 54.2554 112 54.2385 112C54.2217 112 54.2049 112 54.1881 112C54.1712 112 54.1544 112 54.1375 112C54.1207 112 54.1038 112 54.0869 112C54.07 112 54.0531 112 54.0362 112C54.0193 112 54.0024 112 53.9854 112C53.9685 112 53.9515 112 53.9345 112C53.9176 112 53.9006 112 53.8836 112C53.8666 112 53.8496 112 53.8326 112C53.8155 112 53.7985 112 53.7815 112C53.7644 112 53.7474 112 53.7303 112C53.7132 112 53.6961 112 53.679 112C53.6619 112 53.6448 112 53.6277 112C53.6106 112 53.5934 112 53.5763 112C53.5592 112 53.542 112 53.5248 112C53.5077 112 53.4905 112 53.4733 112C53.4561 112 53.4389 112 53.4217 112C53.4044 112 53.3872 112 53.37 112C53.3527 112 53.3355 112 53.3182 112C53.3009 112 53.2837 112 53.2664 112C53.2491 112 53.2318 112 53.2145 112C53.1972 112 53.1798 112 53.1625 112C53.1452 112 53.1278 112 53.1105 112C53.0931 112 53.0757 112 53.0584 112C53.041 112 53.0236 112 53.0062 112C52.9888 112 52.9714 112 52.954 112C52.9365 112 52.9191 112 52.9017 112C52.8842 112 52.8668 112 52.8493 112C52.8318 112 52.8144 112 52.7969 112C52.7794 112 52.7619 112 52.7444 112C52.7269 112 52.7094 112 52.6919 112C52.6743 112 52.6568 112 52.6393 112C52.6217 112 52.6042 112 52.5866 112C52.569 112 52.5514 112 52.5339 112C52.5163 112 52.4987 112 52.4811 112C52.4635 112 52.4459 112 52.4282 112C52.4106 112 52.393 112 52.3754 112C52.3577 112 52.3401 112 52.3224 112C52.3047 112 52.2871 112 52.2694 112C52.2517 112 52.234 112 52.2163 112C52.1986 112 52.1809 112 52.1632 112C52.1455 112 52.1278 112 52.1101 112C52.0923 112 52.0746 112 52.0568 112C52.0391 112 52.0213 112 52.0036 112C51.9858 112 51.968 112 51.9503 112C51.9325 112 51.9147 112 51.8969 112C51.8791 112 51.8613 112 51.8435 112C51.8257 112 51.8078 112 51.79 112C51.7722 112 51.7543 112 51.7365 112C51.7187 112 51.7008 112 51.6829 112C51.6651 112 51.6472 112 51.6293 112C51.6115 112 51.5936 112 51.5757 112C51.5578 112 51.5399 112 51.522 112C51.5041 112 51.4862 112 51.4683 112C51.4503 112 51.4324 112 51.4145 112C51.3965 112 51.3786 112 51.3607 112C51.3427 112 51.3248 112 51.3068 112C51.2888 112 51.2709 112 51.2529 112C51.2349 112 51.2169 112 51.199 112C51.181 112 51.163 112 51.145 112C51.127 112 51.109 112 51.091 112C51.073 112 51.0549 112 51.0369 112C51.0189 112 51.0009 112 50.9828 112C50.9648 112 50.9467 112 50.9287 112C50.9106 112 50.8926 112 50.8745 112C50.8565 112 50.8384 112 50.8203 112C50.8023 112 50.7842 112 50.7661 112C50.748 112 50.7299 112 50.7118 112C50.6938 112 50.6757 112 50.6576 112C50.6395 112 50.6213 112 50.6032 112C50.5851 112 50.567 112 50.5489 112C50.5308 112 50.5126 112 50.4945 112C50.4764 112 50.4582 112 50.4401 112C50.4219 112 50.4038 112 50.3856 112C50.3675 112 50.3493 112 50.3312 112C50.313 112 50.2949 112 50.2767 112C50.2585 112 50.2403 112 50.2222 112C50.204 112 50.1858 112 50.1676 112C50.1494 112 50.1312 112 50.1131 112C50.0949 112 50.0767 112 50.0585 112C50.0403 112 50.0221 112 50.0038 112C49.9856 112 49.9674 112 49.9492 112C49.931 112 49.9128 112 49.8946 112C49.8763 112 49.8581 112 49.8399 112C49.8217 112 49.8034 112 49.7852 112C49.7669 112 49.7487 112 49.7305 112C49.7122 112 49.694 112 49.6757 112C49.6575 112 49.6392 112 49.621 112C49.6027 112 49.5845 112 49.5662 112C49.548 112 49.5297 112 49.5114 112C49.4932 112 49.4749 112 49.4566 112C49.4384 112 49.4201 112 49.4018 112C49.3836 112 49.3653 112 49.347 112C49.3287 112 49.3104 112 49.2922 112C49.2739 112 49.2556 112 49.2373 112C49.219 112 49.2007 112 49.1825 112C49.1642 112 49.1459 112 49.1276 112C49.1093 112 49.091 112 49.0727 112C49.0544 112 49.0361 112 49.0178 112C48.9995 112 48.9812 112 48.9629 112C48.9446 112 48.9263 112 48.908 112C48.8897 112 48.8714 112 48.8531 112C48.8348 112 48.8165 112 48.7982 112C48.7799 112 48.7616 112 48.7433 112C48.725 112 48.7067 112 48.6884 112C48.67 112 48.6517 112 48.6334 112C48.6151 112 48.5968 112 48.5785 112C48.5602 112 48.5419 112 48.5236 112C48.5053 112 48.4869 112 48.4686 112C48.4503 112 48.432 112 48.4137 112C48.3954 112 48.3771 112 48.3588 112C48.3405 112 48.3221 112 48.3038 112C48.2855 112 48.2672 112 48.2489 112C48.2306 112 48.2123 112 48.194 112C48.1757 112 48.1574 112 48.1391 112C48.1207 112 48.1024 112 48.0841 112C48.0658 112 48.0475 112 48.0292 112C48.0109 112 47.9926 112 47.9743 112C47.956 112 47.9377 112 47.9194 112C47.9011 112 47.8828 112 47.8645 112C47.8462 112 47.8279 112 47.8096 112C47.7913 112 47.7731 112 47.7548 112C47.7365 112 47.7182 112 47.6999 112C47.6816 112 47.6633 112 47.645 112C47.6268 112 47.6085 112 47.5902 112C47.5719 112 47.5536 112 47.5354 112C47.5171 112 47.4988 112 47.4805 112C47.4623 112 47.444 112 47.4257 112C47.4075 112 47.3892 112 47.3709 112C47.3527 112 47.3344 112 47.3162 112C47.2979 112 47.2797 112 47.2614 112C47.2432 112 47.2249 112 47.2067 112C47.1884 112 47.1702 112 47.1519 112C47.1337 112 47.1155 112 47.0972 112C47.079 112 47.0608 112 47.0425 112C47.0243 112 47.0061 112 46.9879 112C46.9697 112 46.9514 112 46.9332 112C46.915 112 46.8968 112 46.8786 112C46.8604 112 46.8422 112 46.824 112C46.8058 112 46.7876 112 46.7694 112C46.7512 112 46.733 112 46.7148 112C46.6967 112 46.6785 112 46.6603 112C46.6421 112 46.624 112 46.6058 112C46.5876 112 46.5695 112 46.5513 112C46.5332 112 46.515 112 46.4969 112C46.4787 112 46.4606 112 46.4424 112C46.4243 112 46.4062 112 46.388 112C46.3699 112 46.3518 112 46.3337 112C46.3155 112 46.2974 112 46.2793 112C46.2612 112 46.2431 112 46.225 112C46.2069 112 46.1888 112 46.1707 112C46.1526 112 46.1345 112 46.1165 112C46.0984 112 46.0803 112 46.0623 112C46.0442 112 46.0261 112 46.0081 112C45.99 112 45.972 112 45.9539 112C45.9359 112 45.9178 112 45.8998 112C45.8818 112 45.8638 112 45.8457 112C45.8277 112 45.8097 112 45.7917 112C45.7737 112 45.7557 112 45.7377 112C45.7197 112 45.7017 112 45.6837 112C45.6657 112 45.6478 112 45.6298 112C45.6118 112 45.5939 112 45.5759 112C45.558 112 45.54 112 45.5221 112C45.5041 112 45.4862 112 45.4683 112C45.4503 112 45.4324 112 45.4145 112C45.3966 112 45.3787 112 45.3608 112C45.3429 112 45.325 112 45.3071 112C45.2892 112 45.2713 112 45.2535 112C45.2356 112 45.2177 112 45.1999 112C45.182 112 45.1642 112 45.1463 112C45.1285 112 45.1107 112 45.0928 112C45.075 112 45.0572 112 45.0394 112C45.0216 112 45.0038 112 44.986 112C44.9682 112 44.9504 112 44.9327 112C44.9149 112 44.8971 112 44.8794 112C44.8616 112 44.8438 112 44.8261 112C44.8084 112 44.7906 112 44.7729 112C44.7552 112 44.7375 112 44.7198 112C44.7021 112 44.6844 112 44.6667 112C44.649 112 44.6313 112 44.6136 112C44.596 112 44.5783 112 44.5606 112C44.543 112 44.5253 112 44.5077 112C44.4901 112 44.4725 112 44.4548 112C44.4372 112 44.4196 112 44.402 112C44.3844 112 44.3668 112 44.3493 112C44.3317 112 44.3141 112 44.2966 112C44.279 112 44.2615 112 44.2439 112C44.2264 112 44.2089 112 44.1913 112C44.1738 112 44.1563 112 44.1388 112C44.1213 112 44.1038 112 44.0863 112C44.0689 112 44.0514 112 44.034 112C44.0165 112 43.9991 112 43.9816 112C43.9642 112 43.9468 112 43.9293 112C43.9119 112 43.8945 112 43.8771 112C43.8597 112 43.8424 112 43.825 112C43.8076 112 43.7903 112 43.7729 112C43.7556 112 43.7382 112 43.7209 112C43.7036 112 43.6863 112 43.669 112C43.6517 112 43.6344 112 43.6171 112C43.5998 112 43.5825 112 43.5653 112C43.548 112 43.5308 112 43.5135 112C43.4963 112 43.4791 112 43.4619 112C43.4447 112 43.4275 112 43.4103 112C43.3931 112 43.3759 112 43.3588 112C43.3416 112 43.3244 112 43.3073 112C43.2902 112 43.273 112 43.2559 112C43.2388 112 43.2217 112 43.2046 112C43.1875 112 43.1705 112 43.1534 112C43.1363 112 43.1193 112 43.1022 112C43.0852 112 43.0682 112 43.0512 112C43.0342 112 43.0172 112 43.0002 112C42.9832 112 42.9662 112 42.9493 112C42.9323 112 42.9153 112 42.8984 112C42.8815 112 42.8646 112 42.8477 112C42.8307 112 42.8139 112 42.797 112C42.7801 112 42.7632 112 42.7464 112C42.7295 112 42.7127 112 42.6959 112C42.679 112 42.6622 112 42.6454 112C42.6286 112 42.6118 112 42.5951 112C42.5783 112 42.5616 112 42.5448 112C42.5281 112 42.5113 112 42.4946 112C42.4779 112 42.4612 112 42.4445 112C42.4279 112 42.4112 112 42.3945 112C42.3779 112 42.3612 112 42.3446 112C42.328 112 42.3114 112 42.2948 112C42.2782 112 42.2616 112 42.245 112C42.2285 112 42.2119 112 42.1954 112C42.1788 112 42.1623 112 42.1458 112C42.1293 112 42.1128 112 42.0963 112C42.0799 112 42.0634 112 42.047 112C42.0305 112 42.0141 112 41.9977 112C41.9813 112 41.9649 112 41.9485 112C41.9321 112 41.9157 112 41.8994 112C41.883 112 41.8667 112 41.8504 112C41.8341 112 41.8178 112 41.8015 112C41.7852 112 41.7689 112 41.7527 112C41.7364 112 41.7202 112 41.7039 112C41.6877 112 41.6715 112 41.6553 112C41.6391 112 41.623 112 41.6068 112C41.5906 112 41.5745 112 41.5584 112C41.5423 112 41.5262 112 41.5101 112C41.494 112 41.4779 112 41.4619 112C41.4458 112 41.4298 112 41.4137 112C41.3977 112 41.3817 112 41.3657 112C41.3497 112 41.3338 112 41.3178 112C41.3019 112 41.2859 112 41.27 112C41.2541 112 41.2382 112 41.2223 112C41.2064 112 41.1906 112 41.1747 112C41.1589 112 41.1431 112 41.1272 112C41.1114 112 41.0956 112 41.0799 112C41.0641 112 41.0483 112 41.0326 112C41.0169 112 41.0011 112 40.9854 112C40.9697 112 40.954 112 40.9384 112C40.9227 112 40.9071 112 40.8914 112C40.8758 112 40.8602 112 40.8446 112C40.829 112 40.8134 112 40.7979 112C40.7823 112 40.7668 112 40.7513 112C40.7358 112 40.7203 112 40.7048 112C40.6893 112 40.6739 112 40.6584 112C40.643 112 40.6276 112 40.6122 112C40.5968 112 40.5814 112 40.566 112C40.5507 112 40.5353 112 40.52 112C40.5047 112 40.4894 112 40.4741 112C40.4588 112 40.4435 112 40.4283 112C40.413 112 40.3978 112 40.3826 112C40.3674 112 40.3522 112 40.337 112C40.3219 112 40.3067 112 40.2916 112C40.2765 112 40.2614 112 40.2463 112C40.2312 112 40.2161 112 40.2011 112C40.1861 112 40.171 112 40.156 112C40.141 112 40.1261 112 40.1111 112C40.0961 112 40.0812 112 40.0663 112C40.0514 112 40.0365 112 40.0216 112C40.0067 112 39.9918 112 39.977 112C39.9622 112 39.9474 112 39.9326 112C39.9178 112 39.903 112 39.8882 112C39.8735 112 39.8588 112 39.8441 112C39.8293 112 39.8147 112 39.8 112C39.7853 112 39.7707 112 39.7561 112C39.7415 112 39.7268 112 39.7123 112C39.6977 112 39.6831 112 39.6686 112C39.6541 112 39.6396 112 39.6251 112C39.6106 112 39.5961 112 39.5817 112C39.5672 112 39.5528 112 39.5384 112C39.524 112 39.5096 112 39.4953 112C39.4809 112 39.4666 112 39.4523 112C39.438 112 39.4237 112 39.4094 112C39.3951 112 39.3809 112 39.3667 112C39.3525 112 39.3383 112 39.3241 112C39.3099 112 39.2958 112 39.2816 112C39.2675 112 39.2534 112 39.2393 112C39.2252 112 39.2112 112 39.1971 112C39.1831 112 39.1691 112 39.1551 112C39.1411 112 39.1272 112 39.1132 112C39.0993 112 39.0854 112 39.0715 112C39.0576 112 39.0437 112 39.0299 112C39.016 112 39.0022 112 38.9884 112C38.9746 112 38.9608 112 38.9471 112C38.9333 112 38.9196 112 38.9059 112C38.8922 112 38.8785 112 38.8649 112C38.8512 112 38.8376 112 38.824 112C38.8104 112 38.7968 112 38.7833 112C38.7697 112 38.7562 112 38.7427 112C38.7292 112 38.7157 112 38.7022 112C38.6888 112 38.6754 112 38.662 112C38.6486 112 38.6352 112 38.6218 112C38.6085 112 38.5951 112 38.5818 112C38.5685 112 38.5553 112 38.542 112C38.5287 112 38.5155 112 38.5023 112C38.4891 112 38.4759 112 38.4628 112C38.4496 112 38.4365 112 38.4234 112C38.4103 112 38.3972 112 38.3842 112C38.3712 112 38.3581 112 38.3451 112C38.3321 112 38.3192 112 38.3062 112C38.2933 112 38.2804 112 38.2675 112C38.2546 112 38.2417 112 38.2289 112C38.2161 112 38.2033 112 38.1905 112C38.1777 112 38.1649 112 38.1522 112C38.1395 112 38.1268 112 38.1141 112C38.1014 112 38.0888 112 38.0761 112C38.0635 112 38.0509 112 38.0383 112C38.0258 112 38.0132 112 38.0007 112C37.9882 112 37.9757 112 37.9633 112C37.9508 112 37.9384 112 37.926 112C37.9136 112 37.9012 112 37.8888 112C37.8765 112 37.8642 112 37.8519 112C37.8396 112 37.8273 112 37.8151 112C37.8028 112 37.7906 112 37.7784 112C37.7663 112 37.7541 112 37.742 112C37.7298 112 37.7177 112 37.7057 112C37.6936 112 37.6816 112 37.6696 112C37.6575 112 37.6456 112 37.6336 112C37.6216 112 37.6097 112 37.5978 112C37.5859 112 37.574 112 37.5622 112C37.5504 112 37.5385 112 37.5268 112C37.515 112 37.5032 112 37.4915 112C37.4798 112 37.4681 112 37.4564 112C37.4447 112 37.4331 112 37.4215 112C37.4099 112 37.3983 112 37.3868 112C37.3752 112 37.3637 112 37.3522 112C37.3407 112 37.3292 112 37.3178 112C37.3064 112 37.295 112 37.2836 112C37.2722 112 37.2609 112 37.2496 112C37.2383 112 37.227 112 37.2157 112C37.2045 112 37.1932 112 37.182 112C37.1709 112 37.1597 112 37.1486 112C37.1374 112 37.1263 112 37.1153 112C37.1042 112 37.0931 112 37.0821 112C37.0711 112 37.0601 112 37.0492 112C37.0382 112 37.0273 112 37.0164 112C37.0055 112 36.9947 112 36.9839 112C36.973 112 36.9622 112 36.9515 112C36.9407 112 36.93 112 36.9193 112C36.9086 112 36.8979 112 36.8873 112C36.8766 112 36.866 112 36.8554 112C36.8449 112 36.8343 112 36.8238 112C36.8133 112 36.8028 112 36.7924 112C36.7819 112 36.7715 112 36.7611 112C36.7507 112 36.7404 112 36.7301 112C36.7197 112 36.7094 112 36.6992 112C36.6889 112 36.6787 112 36.6685 112C36.6583 112 36.6482 112 36.638 112C36.6279 112 36.6178 112 36.6077 112C36.5977 112 36.5876 112 36.5776 112C36.5676 112 36.5577 112 36.5477 112C36.5378 112 36.5279 112 36.518 112C36.5082 112 36.4983 112 36.4885 112C36.4787 112 36.469 112 36.4592 112C36.4495 112 36.4398 112 36.4301 112C36.4205 112 36.4108 112 36.4012 112C36.3916 112 36.382 112 36.3725 112C36.363 112 36.3535 112 36.344 112C36.3345 112 36.3251 112 36.3157 112C36.3063 112 36.2969 112 36.2876 112C36.2783 112 36.269 112 36.2597 112C36.2504 112 36.2412 112 36.232 112C36.2228 112 36.2136 112 36.2045 112C36.1954 112 36.1863 112 36.1772 112C36.1682 112 36.1591 112 36.1502 112C36.1412 112 36.1322 112 36.1233 112C36.1144 112 36.1055 112 36.0966 112C36.0878 112 36.079 112 36.0702 112C36.0614 112 36.0526 112 36.0439 112C36.0352 112 36.0265 112 36.0179 112C36.0093 112 36.0007 112 35.9921 112C35.9835 112 35.975 112 35.9665 112C35.958 112 35.9495 112 35.9411 112C35.9326 112 35.9243 112 35.9159 112C35.9075 112 35.8992 112 35.8909 112C35.8826 112 35.8744 112 35.8662 112C35.858 112 35.8498 112 35.8416 112C35.8335 112 35.8254 112 35.8173 112C35.8092 112 35.8012 112 35.7932 112C35.7852 112 35.7773 112 35.7693 112C35.7614 112 35.7535 112 35.7457 112C35.7378 112 35.73 112 35.7222 112C35.7144 112 35.7067 112 35.699 112C35.6913 112 35.6836 112 35.676 112C35.6684 112 35.6608 112 35.6532 112C35.6456 112 35.6381 112 35.6306 112C35.6232 112 35.6157 112 35.6083 112C35.6009 112 35.5935 112 35.5862 112C35.5789 112 35.5716 112 35.5643 112C35.557 112 35.5498 112 35.5426 112C35.5355 112 35.5283 112 35.5212 112C35.5141 112 35.507 112 35.5 112V116ZM60.8974 114.632C61.0724 114.107 62.2229 111.969 65.06 110.196L62.94 106.804C59.3771 109.031 57.5943 111.893 57.1026 113.368L60.8974 114.632ZM65.9901 108.301C65.879 107.19 66.2251 105.221 67.9266 103.426C69.6069 101.653 72.7855 99.8728 78.6288 99.4958L78.3712 95.5042C71.8146 95.9272 67.5764 97.9805 65.0234 100.674C62.4916 103.346 61.7877 106.477 62.0099 108.699L65.9901 108.301ZM80.5 97.5V75H76.5V97.5H80.5ZM78.9249 73.0456C73.6254 71.8936 66.983 68.2323 61.6694 62.3694C56.3861 56.5399 52.5 48.6282 52.5 39H48.5C48.5 49.7718 52.8639 58.6101 58.7056 65.0556C64.517 71.4677 71.8746 75.6064 78.0751 76.9544L78.9249 73.0456ZM94.5005 75.0444L95.0005 97.5444L98.9995 97.4556L98.4995 74.9556L94.5005 75.0444ZM78.3891 76.9969L87.3891 77.4969L87.6109 73.5031L78.6109 73.0031L78.3891 76.9969ZM87.6109 77.4969L96.6109 76.9969L96.3891 73.0031L87.3891 73.5031L87.6109 77.4969ZM14 158.781V151.036H10V158.781H14ZM14 151.036V143.292H10V151.036H14ZM10.1798 150.208L0.179785 172.171L3.82022 173.829L13.8202 151.865L10.1798 150.208ZM0 173V199H4V173H0ZM0 199C-3.71933e-05 202.948 0.727403 207.168 3.52661 210.458C6.36635 213.797 10.9979 215.789 17.9394 215.999L18.0606 212.001C11.8021 211.811 8.43361 210.053 6.57334 207.867C4.67253 205.632 3.99997 202.552 4 199L0 199ZM18 216H157.5V212H18V216ZM157.5 216C162.272 216 166.851 215.527 170.222 213.13C173.767 210.609 175.5 206.346 175.5 200H171.5C171.5 205.654 169.983 208.391 167.903 209.87C165.649 211.473 162.228 212 157.5 212V216ZM175.5 200V173H171.5V200H175.5ZM173.5 171H2V175H173.5V171ZM175.305 172.139L149.305 117.639L145.695 119.361L171.695 173.861L175.305 172.139ZM149.236 117.508C148.773 116.697 148.307 115.838 147.83 115.131C147.328 114.388 146.718 113.659 145.859 113.086C144.129 111.933 141.898 111.752 138.834 112.007L139.166 115.993C142.102 115.748 143.121 116.067 143.641 116.414C143.907 116.591 144.172 116.862 144.514 117.369C144.881 117.912 145.227 118.553 145.764 119.492L149.236 117.508ZM139 112H115.5V116H139V112ZM117.44 113.515C116.888 111.307 116.143 109.844 115.162 108.774C114.257 107.786 113.133 107.185 112.609 106.836L110.391 110.164C111.367 110.815 111.743 110.964 112.213 111.476C112.607 111.906 113.112 112.693 113.56 114.485L117.44 113.515ZM113.452 108.066C112.298 102.87 106.944 95.5 97 95.5V99.5C104.656 99.5 108.702 105.13 109.548 108.934L113.452 108.066ZM109.662 107.712C108.808 109.705 106.551 111.8 103.052 113.527C99.6131 115.225 95.2361 116.432 90.5839 116.819C81.2146 117.6 71.293 115.042 65.6113 107.315L62.3887 109.685C69.207 118.958 80.7854 121.65 90.9161 120.806C96.0139 120.381 100.887 119.057 104.823 117.114C108.699 115.2 111.942 112.545 113.338 109.288L109.662 107.712ZM76.5 97.5V107.5H80.5V97.5H76.5ZM95 97.5V107.5H99V97.5H95ZM95.4949 106.183C94.3155 107.531 91.5459 108.5 88.125 108.5C84.7627 108.5 81.5725 107.555 79.8287 106.005L77.1713 108.995C79.9275 111.445 84.2373 112.5 88.125 112.5C91.9541 112.5 96.1845 111.469 98.5051 108.817L95.4949 106.183ZM57.285 112.971C56.8107 113.761 55.9938 115.035 55.1098 116.245C54.1799 117.519 53.3341 118.499 52.8 118.9L55.2 122.1C56.2659 121.301 57.4201 119.864 58.3402 118.604C59.3062 117.282 60.1893 115.905 60.715 115.029L57.285 112.971ZM52.8 118.9C52.4054 119.196 51.8754 119.518 51.1979 119.912C50.5552 120.285 49.783 120.722 49.0513 121.188C47.6665 122.069 45.9017 123.361 45.143 125.257L48.857 126.743C49.0983 126.139 49.8335 125.431 51.1987 124.562C51.842 124.153 52.5073 123.777 53.2084 123.37C53.8746 122.982 54.5946 122.554 55.2 122.1L52.8 118.9ZM18.3276 140.243C23.83 137.742 32.7311 136.966 39.7447 139.827L41.2553 136.123C33.1192 132.805 23.0699 133.694 16.6724 136.602L18.3276 140.243ZM39.7447 139.827C42.3679 140.897 44.6822 142.457 46.4702 144.58L49.5298 142.004C47.2582 139.306 44.3754 137.396 41.2553 136.123L39.7447 139.827ZM113.711 114.894C114.179 115.829 115.019 117.264 116.075 118.642C117.096 119.974 118.489 121.481 120.106 122.289L121.894 118.711C121.111 118.319 120.17 117.409 119.25 116.208C118.364 115.053 117.655 113.837 117.289 113.106L113.711 114.894ZM120.106 122.289C122.291 123.381 126.071 126.218 127.751 127.562L130.249 124.438C128.596 123.115 124.509 120.019 121.894 118.711L120.106 122.289ZM127.586 127.414C128.952 128.781 130.277 130.567 131.026 132.384C131.778 134.209 131.855 135.801 131.213 137.076L134.787 138.874C136.145 136.175 135.722 133.279 134.724 130.859C133.723 128.433 132.048 126.219 130.414 124.586L127.586 127.414ZM46 143.292V149H50V143.292H46ZM46 149V158.781H50V149H46ZM131.001 138.047C131.09 140.533 129.159 143.853 124.642 147.217C120.238 150.495 113.797 153.475 105.971 155.352C90.3375 159.102 69.4757 158.383 48.9542 147.242L47.0458 150.758C68.5243 162.417 90.4125 163.198 106.904 159.242C115.14 157.266 122.106 154.091 127.03 150.425C131.841 146.844 135.16 142.43 134.999 137.904L131.001 138.047ZM52.3536 121.635C57.8135 129.552 69.5381 135.119 82.56 136.033C95.6835 136.953 110.51 133.192 122.375 121.952L119.625 119.048C108.69 129.408 95.0165 132.897 82.84 132.042C70.5619 131.181 60.1865 125.948 55.6464 119.365L52.3536 121.635ZM45.143 125.257C45.1501 125.239 45.1303 125.295 45.018 125.433C44.9078 125.567 44.7468 125.735 44.5174 125.947C44.0167 126.409 43.4768 126.83 42.7172 127.481L45.3187 130.519C45.9032 130.019 46.6687 129.404 47.2302 128.886C47.7851 128.374 48.4925 127.654 48.857 126.743L45.143 125.257ZM42.7172 127.481C41.5469 128.483 40.0987 129.831 39.1587 131.64C38.1747 133.535 37.8059 135.817 38.5764 138.523L42.4236 137.428C41.9365 135.717 42.1882 134.486 42.7084 133.484C43.2725 132.398 44.2121 131.467 45.3187 130.519L42.7172 127.481ZM42.0241 128.844C41.8237 131.403 43.418 133.761 45.4435 135.692C47.549 137.699 50.5383 139.651 54.0698 141.427C61.1486 144.988 70.7543 148.018 80.8004 149.357C90.8336 150.695 101.483 150.371 110.57 147.05C119.727 143.704 127.297 137.301 130.895 126.64L127.105 125.36C123.953 134.699 117.398 140.296 109.197 143.293C100.924 146.317 90.9811 146.68 81.3291 145.393C71.69 144.107 62.5177 141.199 55.8673 137.854C52.5341 136.177 49.9208 134.434 48.2036 132.797C46.4064 131.083 45.9577 129.847 46.0118 129.156L42.0241 128.844ZM52.5 39C52.5 35.5351 53.0969 31.3637 54.5141 27.1356L50.7215 25.8644C49.1664 30.5037 48.5 35.1046 48.5 39H52.5ZM51.4525 28.1255C52.2292 28.6822 53.4216 29.5923 54.4533 30.4936C54.9711 30.946 55.417 31.369 55.7423 31.7252C56.1311 32.151 56.1485 32.2699 56.1026 32.1325L59.8974 30.8675C59.6515 30.1301 59.0996 29.4698 58.696 29.0279C58.2289 28.5164 57.6594 27.9831 57.0851 27.4814C55.9325 26.4744 54.6339 25.4844 53.7831 24.8745L51.4525 28.1255ZM56.1026 32.1325C56.3542 32.8872 56.9004 34.5346 57.8039 36.2026C58.6813 37.8223 60.0525 39.7623 62.1056 40.7889L63.8944 37.2111C62.9475 36.7377 62.0687 35.6777 61.3211 34.2974C60.5996 32.9654 60.1458 31.6128 59.8974 30.8675L56.1026 32.1325ZM62.1056 40.7889C62.1372 40.8047 62.1459 40.8138 62.143 40.8111C62.1399 40.8083 62.1378 40.8051 62.1387 40.8067C62.1417 40.8114 62.1801 40.8765 62.2015 41.0563C62.2492 41.4581 62.1745 42.0808 61.947 42.9056C61.7276 43.701 61.4201 44.502 61.1349 45.2389C60.9999 45.5877 60.8578 45.9529 60.7521 46.262C60.6792 46.4753 60.5 46.9893 60.5 47.5H64.5C64.5 47.7607 64.4302 47.8684 64.5369 47.5564C64.6109 47.3401 64.7189 47.0608 64.8651 46.6829C65.1424 45.9668 65.5224 44.9865 65.803 43.9694C66.0755 42.9817 66.3133 41.7606 66.1735 40.5843C66.0226 39.3139 65.3973 37.9626 63.8944 37.2111L62.1056 40.7889ZM60.5 47.5C60.5 48.0069 60.4983 49.3805 60.7076 50.8453C60.8123 51.5784 60.9769 52.388 61.2455 53.154C61.5073 53.9006 61.915 54.7435 62.5858 55.4142L65.4142 52.5858C65.335 52.5065 65.1802 52.2869 65.0201 51.8304C64.8669 51.3933 64.7502 50.8591 64.6674 50.2797C64.5017 49.1195 64.5 47.9931 64.5 47.5H60.5ZM62.5858 55.4142C63.3142 56.1427 67.2033 60.1661 71.7766 63.1714C74.0522 64.6668 76.6535 66.0172 79.2332 66.5112C81.884 67.0188 84.6909 66.6375 86.9142 64.4142L84.0858 61.5858C83.0591 62.6125 81.741 62.9187 79.9855 62.5826C78.159 62.2328 76.0728 61.2082 73.9734 59.8286C69.7967 57.0839 66.1858 53.3573 65.4142 52.5858L62.5858 55.4142ZM54.5141 27.1356C57.8595 17.1551 65.6649 7.08512 80.7828 4.92584L80.2172 0.966028C63.2244 3.39311 54.4132 14.8508 50.7215 25.8644L54.5141 27.1356ZM80.7828 4.92584C82.7242 4.64855 84.7942 4.5 87 4.5V0.5C84.6143 0.5 82.355 0.660683 80.2172 0.966028L80.7828 4.92584ZM79.3098 4.5532C80.6712 5.56143 84.1528 10.5435 77.3556 20.3616L80.6444 22.6384C88.2472 11.6565 85.3288 4.03315 81.6902 1.33867L79.3098 4.5532ZM77.3556 20.3616C75.1103 23.6048 73.5749 25.9674 72.6635 27.7646C71.7785 29.5097 71.2496 31.1498 71.6763 32.7562C72.0858 34.2979 73.2837 35.3235 74.1556 36.0804C75.1399 36.9347 76.248 37.8439 77.4732 39.2919L80.5268 36.7081C79.0643 34.9798 77.7036 33.8633 76.7777 33.0596C75.7394 32.1584 75.5858 31.8935 75.5422 31.7294C75.5158 31.6298 75.4323 31.1486 76.231 29.5738C77.0032 28.051 78.3897 25.8952 80.6444 22.6384L77.3556 20.3616ZM77.4732 39.2919C78.1753 40.1216 78.7652 40.7912 79.2541 41.3413C79.7528 41.9025 80.116 42.3057 80.4054 42.6464C80.6961 42.9886 80.8397 43.1845 80.9171 43.3129C80.9511 43.3694 80.9634 43.3984 80.9666 43.4065C80.9682 43.4108 80.9685 43.4119 80.9682 43.4108C80.9678 43.4097 80.9678 43.4091 80.9679 43.4101C80.9839 43.5008 80.9824 43.6949 80.761 44.8727C80.5634 45.9237 80.2708 47.4522 80.0122 49.7791L83.9878 50.2209C84.2292 48.0478 84.4991 46.6388 84.6921 45.6117C84.8614 44.7114 85.0786 43.6867 84.9071 42.7149C84.7116 41.6072 84.0819 40.7959 83.454 40.0567C83.1262 39.6709 82.712 39.2108 82.244 38.6841C81.766 38.1463 81.1997 37.5034 80.5268 36.7081L77.4732 39.2919ZM80 50C80 51.311 80.3606 52.8093 80.7827 54.1908C81.2157 55.6077 81.7757 57.0926 82.2766 58.4105C82.7936 59.7709 83.229 60.9079 83.4806 61.76C83.6092 62.1958 83.6516 62.4344 83.6587 62.5276C83.6622 62.5747 83.6476 62.4799 83.6877 62.3089C83.7296 62.1305 83.8682 61.727 84.2925 61.4056L86.7075 64.5944C87.2639 64.173 87.4906 63.6117 87.5818 63.2234C87.6713 62.8423 87.667 62.4855 87.6471 62.224C87.6072 61.7 87.4669 61.1355 87.3169 60.6275C87.0113 59.5921 86.5057 58.2791 86.0157 56.9895C85.5095 55.6574 84.9964 54.2923 84.6081 53.0217C84.209 51.7157 84 50.689 84 50H80ZM87 4.5C93.1267 4.5 99.0515 5.94067 104.224 8.75658L106.137 5.24342C100.339 2.08744 93.7504 0.5 87 0.5V4.5ZM104.224 8.75658C113.857 14.0005 121.066 24.1195 122.004 39.1248L125.996 38.8752C124.978 22.5859 117.054 11.1868 106.137 5.24342L104.224 8.75658ZM103.473 5.95916C101.001 10.0144 97.7589 14.7369 97.2566 19.9974C96.7241 25.5742 99.222 31.2884 106.72 37.5364L109.28 34.4636C102.378 28.7116 100.876 24.1758 101.238 20.3776C101.631 16.2631 104.179 12.4856 106.888 8.04084L103.473 5.95916ZM106.971 37.715C106.975 37.7176 107.173 37.8422 107.388 38.537C107.597 39.213 107.73 40.1166 107.848 41.2668C108.064 43.3658 108.208 46.4051 109.143 48.7428L112.857 47.2572C112.192 45.5949 112.086 43.3842 111.827 40.8582C111.708 39.6959 111.546 38.4433 111.209 37.3536C110.877 36.2828 110.275 35.0324 109.029 34.285L106.971 37.715ZM122.004 39.1248C122.271 43.3975 121.224 48.3139 118.918 53.1373L122.526 54.8627C125.069 49.5452 126.313 43.9503 125.996 38.8752L122.004 39.1248ZM118.918 53.1373C114.81 61.729 106.843 69.7483 95.9156 73.0873L97.0844 76.9127C109.214 73.2066 117.997 64.3359 122.526 54.8627L118.918 53.1373ZM109.203 48.8783C110.292 51.1064 113.927 55.0852 120.45 55.9814L120.994 52.0186C115.872 51.3148 113.337 48.2269 112.797 47.1217L109.203 48.8783Z" fill="#00030F"/>
</svg>
